<svg viewBox="0 0 8 8" xmlns="http://www.w3.org/2000/svg"><path d="M0 0h1v1H0zM1 0h1v1H1zM2 0h1v1H2zM3 0h1v1H3zM2 1h1v1H2zM3 1h1v1H3zM0 2h1v1H0zM1 2h1v1H1zM0 3h1v1H0zM1 3h1v1H1zM2 3h1v1H2zM3 3h1v1H3zM4 0h1v1H4zM5 0h1v1H5zM7 0h1v1H7zM5 1h1v1H5zM7 1h1v1H7zM4 2h1v1H4zM5 2h1v1H5zM7 2h1v1H7zM5 3h1v1H5zM7 3h1v1H7zM1 4h1v1H1zM2 4h1v1H2zM3 4h1v1H3zM4 4h1v1H4zM5 4h1v1H5zM6 4h1v1H6zM3 5h1v1H3zM4 5h1v1H4zM5 5h1v1H5zM6 5h1v1H6zM1 6h1v1H1zM2 6h1v1H2zM4 6h1v1H4zM1 7h1v1H1zM2 7h1v1H2zM3 7h1v1H3zM4 7h1v1H4zM5 7h1v1H5zM6 7h1v1H6z"/></svg>